<mxfile host="app.diagrams.net" agent="Mozilla/5.0 (Windows NT 10.0; Win64; x64; rv:132.0) Gecko/20100101 Firefox/132.0" version="24.8.4">
  <diagram name="Seite-1" id="x4yHFKnj6qDjPk38hqZU">
    <mxGraphModel dx="2074" dy="1105" grid="1" gridSize="10" guides="1" tooltips="1" connect="1" arrows="1" fold="1" page="1" pageScale="1" pageWidth="827" pageHeight="1169" math="0" shadow="0">
      <root>
        <mxCell id="0" />
        <mxCell id="1" parent="0" />
        <mxCell id="2" value="MqInResource" style="swimlane;fontStyle=1;align=center;verticalAlign=top;childLayout=stackLayout;horizontal=1;startSize=30;horizontalStack=0;resizeParent=1;resizeParentMax=0;resizeLast=0;collapsible=0;marginBottom=0;" parent="1" vertex="1">
          <mxGeometry x="55.5" y="317" width="153" height="128" as="geometry" />
        </mxCell>
        <mxCell id="Iu7yWpUYoeJKcPAeOf-G-34" value="&amp;nbsp;- MqInMapper: mapper" style="text;html=1;align=left;verticalAlign=middle;whiteSpace=wrap;rounded=0;" vertex="1" parent="2">
          <mxGeometry y="30" width="153" height="30" as="geometry" />
        </mxCell>
        <mxCell id="3" style="line;strokeWidth=1;fillColor=none;align=left;verticalAlign=middle;spacingTop=-1;spacingLeft=3;spacingRight=3;rotatable=0;labelPosition=right;points=[];portConstraint=eastwest;strokeColor=inherit;" parent="2" vertex="1">
          <mxGeometry y="60" width="153" height="8" as="geometry" />
        </mxCell>
        <mxCell id="4" value="+ getAll()" style="text;strokeColor=none;fillColor=none;align=left;verticalAlign=top;spacingLeft=4;spacingRight=4;overflow=hidden;rotatable=0;points=[[0,0.5],[1,0.5]];portConstraint=eastwest;" parent="2" vertex="1">
          <mxGeometry y="68" width="153" height="30" as="geometry" />
        </mxCell>
        <mxCell id="5" value="+ update(MqIn mqIn)" style="text;strokeColor=none;fillColor=none;align=left;verticalAlign=top;spacingLeft=4;spacingRight=4;overflow=hidden;rotatable=0;points=[[0,0.5],[1,0.5]];portConstraint=eastwest;" parent="2" vertex="1">
          <mxGeometry y="98" width="153" height="30" as="geometry" />
        </mxCell>
        <mxCell id="6" value="&lt;&lt;Interface&gt;&gt;&#xa;MqInService" style="swimlane;fontStyle=1;align=center;verticalAlign=top;childLayout=stackLayout;horizontal=1;startSize=43;horizontalStack=0;resizeParent=1;resizeParentMax=0;resizeLast=0;collapsible=0;marginBottom=0;" parent="1" vertex="1">
          <mxGeometry x="287.5" y="220" width="123" height="111" as="geometry" />
        </mxCell>
        <mxCell id="7" style="line;strokeWidth=1;fillColor=none;align=left;verticalAlign=middle;spacingTop=-1;spacingLeft=3;spacingRight=3;rotatable=0;labelPosition=right;points=[];portConstraint=eastwest;strokeColor=inherit;" parent="6" vertex="1">
          <mxGeometry y="43" width="123" height="8" as="geometry" />
        </mxCell>
        <mxCell id="8" value="+ getAll" style="text;strokeColor=none;fillColor=none;align=left;verticalAlign=top;spacingLeft=4;spacingRight=4;overflow=hidden;rotatable=0;points=[[0,0.5],[1,0.5]];portConstraint=eastwest;" parent="6" vertex="1">
          <mxGeometry y="51" width="123" height="30" as="geometry" />
        </mxCell>
        <mxCell id="9" value="+ update(MqIn mqIn)" style="text;strokeColor=none;fillColor=none;align=left;verticalAlign=top;spacingLeft=4;spacingRight=4;overflow=hidden;rotatable=0;points=[[0,0.5],[1,0.5]];portConstraint=eastwest;" parent="6" vertex="1">
          <mxGeometry y="81" width="123" height="30" as="geometry" />
        </mxCell>
        <mxCell id="10" value="MqInHibernateDao" style="swimlane;fontStyle=1;align=center;verticalAlign=top;childLayout=stackLayout;horizontal=1;startSize=44.625;horizontalStack=0;resizeParent=1;resizeParentMax=0;resizeLast=0;collapsible=0;marginBottom=0;" parent="1" vertex="1">
          <mxGeometry x="480" y="373.31" width="124" height="52.625" as="geometry" />
        </mxCell>
        <mxCell id="11" style="line;strokeWidth=1;fillColor=none;align=left;verticalAlign=middle;spacingTop=-1;spacingLeft=3;spacingRight=3;rotatable=0;labelPosition=right;points=[];portConstraint=eastwest;strokeColor=inherit;" parent="10" vertex="1">
          <mxGeometry y="44.625" width="124" height="8" as="geometry" />
        </mxCell>
        <mxCell id="Iu7yWpUYoeJKcPAeOf-G-23" style="edgeStyle=orthogonalEdgeStyle;rounded=0;orthogonalLoop=1;jettySize=auto;html=1;exitX=0.5;exitY=0;exitDx=0;exitDy=0;entryX=0.488;entryY=1.056;entryDx=0;entryDy=0;entryPerimeter=0;dashed=1;" edge="1" parent="1" source="14" target="9">
          <mxGeometry relative="1" as="geometry">
            <mxPoint x="351" y="303.31" as="targetPoint" />
            <Array as="points">
              <mxPoint x="353" y="373" />
              <mxPoint x="348" y="373" />
            </Array>
          </mxGeometry>
        </mxCell>
        <mxCell id="Iu7yWpUYoeJKcPAeOf-G-39" style="edgeStyle=orthogonalEdgeStyle;rounded=0;orthogonalLoop=1;jettySize=auto;html=1;exitX=1;exitY=0.5;exitDx=0;exitDy=0;entryX=0;entryY=0.5;entryDx=0;entryDy=0;" edge="1" parent="1" source="14" target="10">
          <mxGeometry relative="1" as="geometry" />
        </mxCell>
        <mxCell id="14" value="MqInServiceImpl" style="swimlane;fontStyle=1;align=center;verticalAlign=top;childLayout=stackLayout;horizontal=1;startSize=44.625;horizontalStack=0;resizeParent=1;resizeParentMax=0;resizeLast=0;collapsible=0;marginBottom=0;" parent="1" vertex="1">
          <mxGeometry x="291" y="373.31" width="116" height="52.625" as="geometry" />
        </mxCell>
        <mxCell id="15" value="" style="line;strokeWidth=1;fillColor=none;align=left;verticalAlign=middle;spacingTop=-1;spacingLeft=3;spacingRight=3;rotatable=0;labelPosition=right;points=[];portConstraint=eastwest;strokeColor=inherit;" parent="14" vertex="1">
          <mxGeometry y="44.625" width="116" height="8" as="geometry" />
        </mxCell>
        <mxCell id="Iu7yWpUYoeJKcPAeOf-G-24" style="edgeStyle=orthogonalEdgeStyle;rounded=0;orthogonalLoop=1;jettySize=auto;html=1;exitX=1;exitY=0.5;exitDx=0;exitDy=0;entryX=0;entryY=0.5;entryDx=0;entryDy=0;labelBorderColor=none;" edge="1" parent="1" source="4" target="14">
          <mxGeometry relative="1" as="geometry" />
        </mxCell>
        <mxCell id="Iu7yWpUYoeJKcPAeOf-G-25" value="MqInMapper" style="swimlane;fontStyle=1;align=center;verticalAlign=top;childLayout=stackLayout;horizontal=1;startSize=44.625;horizontalStack=0;resizeParent=1;resizeParentMax=0;resizeLast=0;collapsible=0;marginBottom=0;" vertex="1" parent="1">
          <mxGeometry x="70" y="190" width="124" height="82.625" as="geometry" />
        </mxCell>
        <mxCell id="Iu7yWpUYoeJKcPAeOf-G-26" style="line;strokeWidth=1;fillColor=none;align=left;verticalAlign=middle;spacingTop=-1;spacingLeft=3;spacingRight=3;rotatable=0;labelPosition=right;points=[];portConstraint=eastwest;strokeColor=inherit;" vertex="1" parent="Iu7yWpUYoeJKcPAeOf-G-25">
          <mxGeometry y="44.625" width="124" height="8" as="geometry" />
        </mxCell>
        <mxCell id="Iu7yWpUYoeJKcPAeOf-G-28" value="+ toMqInDto" style="text;strokeColor=none;fillColor=none;align=left;verticalAlign=top;spacingLeft=4;spacingRight=4;overflow=hidden;rotatable=0;points=[[0,0.5],[1,0.5]];portConstraint=eastwest;" vertex="1" parent="Iu7yWpUYoeJKcPAeOf-G-25">
          <mxGeometry y="52.625" width="124" height="30" as="geometry" />
        </mxCell>
        <mxCell id="Iu7yWpUYoeJKcPAeOf-G-29" value="&lt;&lt;Interface&gt;&gt;&#xa;MqInDao" style="swimlane;fontStyle=1;align=center;verticalAlign=top;childLayout=stackLayout;horizontal=1;startSize=44.625;horizontalStack=0;resizeParent=1;resizeParentMax=0;resizeLast=0;collapsible=0;marginBottom=0;" vertex="1" parent="1">
          <mxGeometry x="480" y="218.38" width="124" height="112.625" as="geometry" />
        </mxCell>
        <mxCell id="Iu7yWpUYoeJKcPAeOf-G-30" style="line;strokeWidth=1;fillColor=none;align=left;verticalAlign=middle;spacingTop=-1;spacingLeft=3;spacingRight=3;rotatable=0;labelPosition=right;points=[];portConstraint=eastwest;strokeColor=inherit;" vertex="1" parent="Iu7yWpUYoeJKcPAeOf-G-29">
          <mxGeometry y="44.625" width="124" height="8" as="geometry" />
        </mxCell>
        <mxCell id="Iu7yWpUYoeJKcPAeOf-G-31" value="-processData()" style="text;strokeColor=none;fillColor=none;align=left;verticalAlign=top;spacingLeft=4;spacingRight=4;overflow=hidden;rotatable=0;points=[[0,0.5],[1,0.5]];portConstraint=eastwest;" vertex="1" parent="Iu7yWpUYoeJKcPAeOf-G-29">
          <mxGeometry y="52.625" width="124" height="30" as="geometry" />
        </mxCell>
        <mxCell id="Iu7yWpUYoeJKcPAeOf-G-32" value="-validateData()" style="text;strokeColor=none;fillColor=none;align=left;verticalAlign=top;spacingLeft=4;spacingRight=4;overflow=hidden;rotatable=0;points=[[0,0.5],[1,0.5]];portConstraint=eastwest;" vertex="1" parent="Iu7yWpUYoeJKcPAeOf-G-29">
          <mxGeometry y="82.625" width="124" height="30" as="geometry" />
        </mxCell>
        <mxCell id="Iu7yWpUYoeJKcPAeOf-G-38" style="edgeStyle=orthogonalEdgeStyle;rounded=0;orthogonalLoop=1;jettySize=auto;html=1;exitX=0.5;exitY=0;exitDx=0;exitDy=0;entryX=0.5;entryY=1.033;entryDx=0;entryDy=0;entryPerimeter=0;dashed=1;" edge="1" parent="1" source="10" target="Iu7yWpUYoeJKcPAeOf-G-32">
          <mxGeometry relative="1" as="geometry" />
        </mxCell>
        <mxCell id="Iu7yWpUYoeJKcPAeOf-G-40" value="DB" style="shape=cylinder3;whiteSpace=wrap;html=1;boundedLbl=1;backgroundOutline=1;size=15;" vertex="1" parent="1">
          <mxGeometry x="680" y="360" width="60" height="80" as="geometry" />
        </mxCell>
        <mxCell id="Iu7yWpUYoeJKcPAeOf-G-41" style="edgeStyle=orthogonalEdgeStyle;rounded=0;orthogonalLoop=1;jettySize=auto;html=1;exitX=1;exitY=0.5;exitDx=0;exitDy=0;entryX=0;entryY=0.5;entryDx=0;entryDy=0;entryPerimeter=0;dashed=1;" edge="1" parent="1" source="10" target="Iu7yWpUYoeJKcPAeOf-G-40">
          <mxGeometry relative="1" as="geometry" />
        </mxCell>
        <mxCell id="Iu7yWpUYoeJKcPAeOf-G-42" style="edgeStyle=orthogonalEdgeStyle;rounded=0;orthogonalLoop=1;jettySize=auto;html=1;exitX=0.5;exitY=0;exitDx=0;exitDy=0;entryX=0.5;entryY=0.979;entryDx=0;entryDy=0;entryPerimeter=0;dashed=1;" edge="1" parent="1" source="2" target="Iu7yWpUYoeJKcPAeOf-G-28">
          <mxGeometry relative="1" as="geometry" />
        </mxCell>
      </root>
    </mxGraphModel>
  </diagram>
</mxfile>
